<?xml version="1.0" encoding="UTF-8"?>
<svg id="Calque_2" xmlns="http://www.w3.org/2000/svg" viewBox="0 0 304.84 196.08">
  <defs>
    <style>
      .cls-1 {
        fill: #ffd44d;
      }

      .cls-2 {
        fill: #2d1a0f;
      }

      .cls-3 {
        fill: #ffb54a;
      }
    </style>
  </defs>
  <g id="Calque_1-2" data-name="Calque_1">
    <g>
      <g>
        <path class="cls-2" d="M169.53,104.97c0,2.74-3.96,5.26-7.56,5.26-4.9,0-7.78-4.97-4.25-11.23.72-1.22.65-1.44.43-1.58-.43-.14-.72.07-1.15,1.08-1.37,2.66-4.18,11.74-12.82,11.74-7.71,0-12.53-7.13-12.53-18.22,0-12.02,5.69-19.66,14.47-19.66,5.83,0,7.92,3.38,8.64,6.98.36,1.3.58,1.51.94,1.51s.5-.22.43-1.08c-1.01-4.54,1.8-7.42,5.76-7.42,3.67,0,7.63,2.52,7.63,5.18s-3.46,5.69-3.46,13.39,3.46,11.45,3.46,14.04ZM148.29,96.54c3.1,0,5.04-2.88,5.04-6.41s-2.02-6.41-5.18-6.41-5.18,3.17-5.18,6.41c0,3.53,2.16,6.41,5.33,6.41Z"/>
        <path class="cls-2" d="M185.37,110.23c-9.87,0-15.34-7.13-15.34-18.15,0-12.82,7.49-19.73,16.2-19.73,6.26,0,10.94,3.53,12.17,8.64.65,2.74.5,7.13-3.38,9-4.39,2.02-10.73-.22-8.06-4.61,1.01-1.58.58-2.45-1.01-2.45-2.45,0-4.54,1.94-4.54,6.19,0,4.54,2.38,7.42,5.9,7.42,2.16,0,5.26-1.15,6.12-3.53.5-1.51,1.87-2.3,3.53-1.8,1.8.5,3.17,2.16,3.17,5.62,0,6.55-4.97,13.39-14.76,13.39Z"/>
      </g>
      <g>
        <path class="cls-2" d="M58.1,164.62c0-5.04,2.16-10.58,2.16-22.83,0-7.85-.86-12.75-1.08-13.75-1.22-7.13-4.46-10.22-7.13-8.35-2.16,1.44-2.81,5.11.65,10.01,5.26,7.42,3.02,14.83-4.32,14.91-5.11.07-10.37-3.46-10.37-13.18,0-17.64,17.86-18.29,24.05-18.29h11.02c21.82,0,30.6,10.66,30.6,30.31,0,22.68-11.59,30.24-30.82,30.24h-5.62c-5.83,0-9.14-3.02-9.14-9.07ZM88.49,142.8c0-12.46-2.52-21.1-8.93-21.1-7.49,0-7.2,17.35-7.2,22.54,0,8.64,1.08,17.5,7.78,17.5s8.35-8.14,8.35-18.94Z"/>
        <path class="cls-2" d="M123.19,128.26c9.58,0,17.28,7.71,17.28,19.73,0,11.09-6.55,18.15-17.14,18.15s-17.43-7.06-17.43-18.36,7.7-19.51,17.28-19.51ZM123.26,152.45c3.6,0,5.83-2.88,5.83-6.41s-2.3-6.41-5.98-6.41-5.9,3.17-5.9,6.41c0,3.53,2.45,6.41,6.05,6.41Z"/>
        <path class="cls-2" d="M163.08,156.77c.79,6.12-5.19,9.36-10.37,9.36s-9.94-3.02-9.94-10.22c0-3.89,1.44-9.43,1.44-16.27,0-9.5-2.16-14.33-2.16-18.94,0-5.76,3.46-7.56,8.06-7.56s7.71,1.8,7.71,7.42c0,4.75-2.23,9.72-2.23,19.08,0,23.83,6.63,10.3,7.49,17.14Z"/>
        <path class="cls-2" d="M186.4,156.77c.79,6.12-5.18,9.36-10.37,9.36s-9.94-3.02-9.94-10.22c0-3.89,1.44-9.43,1.44-16.27,0-9.5-2.16-14.33-2.16-18.94,0-5.76,3.46-7.56,8.06-7.56s7.71,1.8,7.71,7.42c0,4.75-2.23,9.72-2.23,19.08,0,23.83,6.62,10.3,7.49,17.14Z"/>
        <path class="cls-2" d="M226.36,160.87c0,2.74-3.96,5.26-7.56,5.26-4.9,0-7.78-4.97-4.25-11.23.72-1.22.65-1.44.43-1.58-.43-.14-.72.07-1.15,1.08-1.37,2.66-4.18,11.74-12.82,11.74-7.71,0-12.53-7.13-12.53-18.22,0-12.03,5.69-19.66,14.47-19.66,5.83,0,7.92,3.38,8.64,6.98.36,1.3.58,1.51.94,1.51s.5-.22.43-1.08c-1.01-4.54,1.8-7.42,5.76-7.42,3.67,0,7.63,2.52,7.63,5.18s-3.46,5.69-3.46,13.39,3.46,11.45,3.46,14.04ZM205.12,152.45c3.1,0,5.04-2.88,5.04-6.41s-2.02-6.41-5.18-6.41-5.18,3.17-5.18,6.41c0,3.53,2.16,6.41,5.33,6.41Z"/>
        <path class="cls-2" d="M249.48,140.86c.36-1.73-1.01-1.8-1.51-1.8-2.59,0-4.39,3.1-4.39,7.85v.58c0,10.51,2.88,8.64,3.6,11.52.79,3.38-3.17,7.13-8.28,7.13-4.18,0-7.85-2.59-7.85-8.5,0-3.38,1.22-6.77,1.22-10.15v-.58c0-1.66-.14-3.6-.65-5.62-1.01-4.39-3.02-5.83-3.02-8.28,0-2.66,2.52-4.75,6.41-4.75,3.31,0,6.05,1.58,6.55,3.96.43,1.87-.29,5.04-1.66,7.27-.58.94-.72,1.51-.14,1.51.22,0,.43-.14,1.15-1.51,3.46-6.98,8.71-11.23,13.9-11.23,5.98,0,7.13,5.62,7.13,8.42,0,4.54-2.88,8.28-7.27,8.5-3.38.22-5.62-1.87-5.18-4.32Z"/>
        <path class="cls-2" d="M282.67,123.65c-3.53,0-6.12,1.66-6.12,3.89,0,7.63,28.3,5.33,28.3,26.43,0,13.32-11.3,21.24-24.19,21.24-11.81,0-20.16-6.62-20.16-16.92,0-9.07,6.41-15.12,16.35-15.12,4.46,0,7.42,1.22,9.14,2.81,4.39,4.1,2.3,12.03-3.53,11.74-3.67-.14-2.81-3.17-5.11-3.17-.94,0-1.73.58-1.73,2.16,0,2.95,2.45,4.9,6.05,4.9,5.04,0,9.79-3.6,9.79-9.5,0-14.18-27.79-8.71-27.79-24.99,0-7.85,6.55-14.04,19.3-14.04,11.74,0,19.3,5.18,19.3,12.89,0,6.48-5.26,9.22-10.3,8.57-3.38-.36-4.1-2.02-2.88-4.39,2.45-4.68-2.67-6.48-6.41-6.48Z"/>
      </g>
      <path class="cls-2" d="M9.69,97.08c-.25,1.67-.4,3.66-1.18,6.8-.85,3.4-1.47,4.3-1.48,6.5,0,1.16,0,4.05,1.77,6.2,2.64,3.19,8.34,3.72,12.11,1.48,4.64-2.76,4.91-8.86,5.02-11.52.17-3.82-.86-5.7-1.66-9.27-.75-3.39-.89-6.49.48-17.92,1.53-12.73,2.29-19.09,3.55-23.64.33-1.2,8-28.22,16.84-27.77,4.24.22,7.29,6.67,9.16,10.64,1.18,2.49,1.88,4.79,3.84,18.91,1.24,8.91.64,5.72,2.07,16.55,1.25,9.44,1.63,11.31,1.18,15.07,0,0-.38,3.24-1.77,10.05h0s-.48,2.98,0,4.73c.87,3.15,5.44,4.43,6.5,4.73.73.2,7.21,2.02,10.34-1.48,1.88-2.1,1.61-5.05,1.18-9.75-.33-3.59-.99-4.84-1.48-7.68-.81-4.74-.15-8.37.59-12.71,4.1-23.88,3.5-25.75,6.5-32.8,2.68-6.31,6.14-14.45,10.93-14.48,4.11-.02,7.17,5.94,10.34,12.11,4.67,9.11,6.12,16.93,7.98,27.48,1.93,10.94,2.89,16.41,1.77,21.57-.17.78-1.36,6.13-2.66,13.3-1.08,5.97-1.23,7.64-.3,9.45,1.89,3.7,7.29,6.17,12.11,4.73.54-.16,4.35-1.38,6.2-5.32,1.72-3.66,1.03-8.16-1.77-11.52-.11-3.72-.34-8.66-.89-14.48-.39-4.21-.8-7.35-.89-7.98-.73-5.52-1.94-14.4-5.02-24.52-2.25-7.39-4.72-12.85-5.61-14.77-5.57-12-11.44-24.64-20.68-25.41-4.06-.34-7.27,1.74-9.16,2.95-1.86,1.2-7.05,5.01-12.1,22.84-2.88,10.15-3.26,16.18-4.45,16.16-1.93-.03-1.41-15.96-10.05-31.61-1.95-3.53-4.89-8.02-10.05-9.75,0,0-3.91-1.32-8.27-.3-19.53,4.57-28.87,67.85-31.02,82.43Z"/>
      <path class="cls-2" d="M276.34,97.75c2.2,1.75,2.37,3.56,2.42,5.38.2,2.73.48,8.18.58,10.91.29,9.05.18,18.27.43,27.31.14,10.93,1.58,21.8,1.88,32.72.04,1.82.06,3.64.03,5.46.05,1.82-.03,3.64-2.44,5.55-2.53-1.74-2.74-3.55-2.81-5.37-.15-1.82-.25-3.63-.33-5.45-.43-10.92.29-21.86-.3-32.77-.34-9.03-1.07-18.23-1.38-27.27-.09-2.71-.16-8.21-.14-10.92-.06-1.82-.02-3.64,2.06-5.53h0Z"/>
      <path class="cls-2" d="M284.79,98.26c2.19,1.99,2.33,4.03,2.37,6.07.17,3.06.4,9.16.47,12.22.19,10.14-.02,20.46.17,30.58.15,14.27,1.35,28.56,2,42.77-.08.51-.12,1.02-.3,1.54-.27.75-2.44,1.36-2.69,2.35,0,.76.03,1.58.04,2.29-.02-.61-.02-1.72-.06-2.29-.3-.98-2.49-1.5-2.79-2.24-.2-.51-.26-1.01-.36-1.52.05-14.23.66-28.56.2-42.82-.24-10.12-.88-20.43-1.12-30.56-.06-3.02-.09-9.2-.05-12.23-.05-2.04.01-4.08,2.11-6.16h0Z"/>
    </g>
    <g>
      <g>
        <g>
          <g>
            <path class="cls-3" d="M165.01,93.21c0,2.74-3.96,5.26-7.56,5.26-4.9,0-7.78-4.97-4.25-11.23.72-1.22.65-1.44.43-1.58-.43-.14-.72.07-1.15,1.08-1.37,2.66-4.18,11.74-12.82,11.74-7.71,0-12.53-7.13-12.53-18.22,0-12.02,5.69-19.66,14.47-19.66,5.83,0,7.92,3.38,8.64,6.98.36,1.3.58,1.51.94,1.51s.5-.22.43-1.08c-1.01-4.54,1.8-7.42,5.76-7.42,3.67,0,7.63,2.52,7.63,5.18s-3.46,5.69-3.46,13.39,3.46,11.45,3.46,14.04ZM143.76,84.79c3.1,0,5.04-2.88,5.04-6.41s-2.02-6.41-5.18-6.41-5.18,3.17-5.18,6.41c0,3.53,2.16,6.41,5.33,6.41Z"/>
            <path class="cls-2" d="M157.44,100.97c-3.08,0-5.69-1.43-7.15-3.94-.16-.27-.3-.54-.42-.83-2.29,2.6-5.55,4.76-10.21,4.76-9.13,0-15.03-8.13-15.03-20.72,0-13.46,6.66-22.16,16.97-22.16,3.72,0,6.65,1.23,8.62,3.56.12-.19.26-.37.4-.55,1.54-1.92,4-3.01,6.75-3.01,4.78,0,10.13,3.29,10.13,7.68,0,1.5-.59,2.8-1.28,4.3-.97,2.12-2.17,4.76-2.17,9.09s1.23,7.39,2.21,9.69c.67,1.55,1.24,2.9,1.24,4.35,0,4.44-5.31,7.76-10.06,7.76ZM153.36,83.1c.4,0,.77.08,1.06.18l.32.11.28.19c1.54,1.03,1.65,2.69.33,4.93-1.3,2.31-1.58,4.57-.74,6.01.55.94,1.56,1.46,2.83,1.46,2.67,0,5.06-1.87,5.06-2.76,0-.43-.43-1.42-.84-2.38-1.04-2.43-2.62-6.11-2.62-11.66s1.58-8.88,2.63-11.17c.41-.89.83-1.82.83-2.22,0-.76-2.28-2.68-5.13-2.68-1.25,0-2.26.41-2.85,1.14-.77.96-.68,2.29-.47,3.23l.05.34c.05.56.15,1.86-.77,2.87-.54.59-1.31.92-2.15.92-2.42,0-3.07-2.34-3.34-3.34l-.04-.18c-.7-3.49-2.55-4.98-6.19-4.98-7.39,0-11.97,6.57-11.97,17.16,0,7.6,2.63,15.72,10.03,15.72,5.47,0,8-4.63,9.94-8.98.23-.52.43-.97.61-1.32.9-2.05,2.14-2.57,3.14-2.57ZM143.76,87.29c-4.46,0-7.83-3.83-7.83-8.91s3.3-8.91,7.68-8.91,7.68,3.75,7.68,8.91-3.17,8.91-7.54,8.91ZM143.62,74.47c-1.96,0-2.68,2.4-2.68,3.91,0,1.94.97,3.91,2.83,3.91,1.75,0,2.54-2.03,2.54-3.91s-.83-3.91-2.68-3.91Z"/>
          </g>
          <g>
            <path class="cls-3" d="M180.84,98.47c-9.87,0-15.34-7.13-15.34-18.15,0-12.82,7.49-19.73,16.2-19.73,6.26,0,10.94,3.53,12.17,8.64.65,2.74.5,7.13-3.38,9-4.39,2.02-10.73-.22-8.06-4.61,1.01-1.58.58-2.45-1.01-2.45-2.45,0-4.54,1.94-4.54,6.19,0,4.54,2.38,7.42,5.9,7.42,2.16,0,5.26-1.15,6.12-3.53.5-1.51,1.87-2.3,3.53-1.8,1.8.5,3.17,2.16,3.17,5.62,0,6.55-4.97,13.39-14.76,13.39Z"/>
            <path class="cls-2" d="M180.84,100.97c-11,0-17.84-7.91-17.84-20.65,0-15.27,9.69-22.23,18.7-22.23,7.33,0,13.06,4.14,14.6,10.56.67,2.84.51,6.46-1.48,9.17,1.53.98,3.27,3.03,3.27,7.25,0,7.9-5.93,15.89-17.26,15.89ZM181.71,63.09c-6.82,0-13.7,5.33-13.7,17.23,0,9.94,4.68,15.65,12.84,15.65s12.26-5.65,12.26-10.89c0-1.88-.45-2.96-1.34-3.21-.24-.07-.33-.06-.35-.05-.01,0-.08.08-.13.24-1.26,3.46-5.22,5.24-8.49,5.24-4.95,0-8.4-4.08-8.4-9.92s3.53-8.69,7.04-8.69c2.27,0,3.25,1.17,3.63,1.86.49.89.79,2.37-.52,4.43-.22.36-.29.63-.18.75.66.74,3.09,1.17,5.09.25,2.95-1.42,2.18-5.38,2-6.15-.98-4.08-4.8-6.72-9.74-6.72ZM179.41,76.69c-.02.26-.03.49-.03.68,0,1.15.25,4.92,3.4,4.92.95,0,2.09-.34,2.88-.87-2.03-.24-3.87-1.05-5.04-2.37-.63-.7-1.03-1.5-1.21-2.35Z"/>
          </g>
        </g>
        <g>
          <g>
            <path class="cls-3" d="M53.58,152.86c0-5.04,2.16-10.58,2.16-22.83,0-7.85-.86-12.75-1.08-13.75-1.22-7.13-4.46-10.22-7.13-8.35-2.16,1.44-2.81,5.11.65,10.01,5.26,7.42,3.02,14.83-4.32,14.91-5.11.07-10.37-3.46-10.37-13.18,0-17.64,17.86-18.29,24.05-18.29h11.02c21.82,0,30.6,10.66,30.6,30.31,0,22.68-11.59,30.24-30.82,30.24h-5.62c-5.83,0-9.14-3.02-9.14-9.07ZM83.96,131.04c0-12.46-2.52-21.1-8.93-21.1-7.49,0-7.2,17.35-7.2,22.54,0,8.64,1.08,17.5,7.78,17.5s8.35-8.14,8.35-18.94Z"/>
            <path class="cls-2" d="M68.34,164.44h-5.62c-7.29,0-11.64-4.33-11.64-11.57,0-2.17.35-4.37.76-6.91.62-3.86,1.4-8.66,1.4-15.92,0-.51,0-1-.01-1.48-.17.66-.41,1.3-.72,1.9-1.57,3.07-4.71,4.85-8.62,4.89-3.32.05-6.37-1.15-8.62-3.37-1.95-1.92-4.28-5.62-4.28-12.31,0-7.76,3.45-20.79,26.55-20.79h11.02c22.28,0,33.1,10.73,33.1,32.81s-10.59,32.74-33.32,32.74ZM57.11,115.81c.13.61,1.12,5.73,1.12,14.22,0,7.66-.81,12.68-1.46,16.71-.39,2.43-.7,4.34-.7,6.11,0,4.55,2.05,6.57,6.64,6.57h5.62c19.85,0,28.32-8.3,28.32-27.74s-8.67-27.81-28.1-27.81h-11.02c-14.3,0-21.55,5.31-21.55,15.79,0,3.93.96,6.95,2.79,8.75,1.65,1.63,3.66,1.93,5.05,1.93,1.44-.01,3.33-.4,4.23-2.17,1.12-2.18.38-5.55-1.91-8.79-2.93-4.15-3.12-7.31-2.76-9.23.34-1.81,1.32-3.34,2.76-4.3,1.49-1.04,3.26-1.25,4.94-.55,2.92,1.22,5.06,4.95,6.03,10.52ZM49.1,109.89s-.05.02-.14.08c-.37.25-.58.6-.67,1.09-.12.64-.17,2.46,1.92,5.43,1.21,1.71,2.1,3.47,2.66,5.2-.29-3.09-.64-4.77-.66-4.89l-.02-.1c-.85-4.98-2.59-6.76-3.09-6.81ZM75.61,152.48c-10.28,0-10.28-14.53-10.28-20v-.55c-.02-8.71.53-18.17,4.73-22.38,1.38-1.38,3.1-2.11,4.97-2.11,7.58,0,11.43,7.94,11.43,23.6,0,5.3,0,21.44-10.85,21.44ZM75.03,112.45c-.55,0-.98.19-1.43.64-3.3,3.3-3.28,14.99-3.27,18.83v.56c0,13.44,3.01,15,5.28,15,4.84,0,5.85-8.94,5.85-16.44,0-5.59-.63-18.6-6.43-18.6Z"/>
          </g>
          <g>
            <path class="cls-3" d="M118.66,116.5c9.58,0,17.28,7.71,17.28,19.73,0,11.09-6.55,18.15-17.14,18.15s-17.43-7.06-17.43-18.36,7.7-19.51,17.28-19.51ZM118.73,140.69c3.6,0,5.83-2.88,5.83-6.41s-2.3-6.41-5.98-6.41-5.9,3.17-5.9,6.41c0,3.53,2.45,6.41,6.05,6.41Z"/>
            <path class="cls-2" d="M118.81,156.87c-11.92,0-19.93-8.38-19.93-20.86s8.32-22.01,19.78-22.01,19.78,9.35,19.78,22.23-7.71,20.65-19.64,20.65ZM118.66,119c-8.56,0-14.78,7.16-14.78,17.01s5.72,15.86,14.93,15.86,14.64-5.85,14.64-15.65-6.08-17.23-14.78-17.23ZM118.73,143.19c-4.87,0-8.55-3.83-8.55-8.91,0-4.32,2.95-8.91,8.4-8.91,4.91,0,8.48,3.75,8.48,8.91s-3.5,8.91-8.33,8.91ZM118.59,130.38c-2.69,0-3.4,2.56-3.4,3.91,0,1.88,1.11,3.91,3.55,3.91s3.33-2.11,3.33-3.91-.91-3.91-3.48-3.91Z"/>
          </g>
          <g>
            <path class="cls-3" d="M158.55,145.01c.79,6.12-5.19,9.36-10.37,9.36s-9.94-3.02-9.94-10.22c0-3.89,1.44-9.43,1.44-16.27,0-9.5-2.16-14.33-2.16-18.94,0-5.76,3.46-7.56,8.06-7.56s7.71,1.8,7.71,7.42c0,4.75-2.23,9.72-2.23,19.08,0,23.83,6.63,10.3,7.49,17.14Z"/>
            <path class="cls-2" d="M148.18,156.87c-6.19,0-12.44-3.93-12.44-12.72,0-1.84.27-3.88.59-6.24.4-2.96.85-6.3.85-10.04,0-5.37-.7-9.09-1.32-12.38-.45-2.38-.84-4.43-.84-6.56,0-6.49,3.75-10.06,10.56-10.06s10.21,3.52,10.21,9.92c0,2.21-.41,4.35-.88,6.82-.63,3.3-1.35,7.04-1.35,12.27,0,10.93,1.46,12.42,1.62,12.56.03-.02.38-.05.61-.08,1.14-.12,4.62-.48,5.23,4.34.38,2.94-.43,5.64-2.33,7.81-2.37,2.69-6.4,4.37-10.52,4.37ZM145.59,103.88c-4.63,0-5.56,1.94-5.56,5.06,0,1.66.33,3.41.75,5.63.63,3.33,1.41,7.47,1.41,13.31,0,4.07-.47,7.59-.89,10.7-.29,2.18-.55,4.07-.55,5.57,0,7.17,5.69,7.72,7.44,7.72,2.68,0,5.34-1.05,6.76-2.67.95-1.08,1.32-2.34,1.13-3.85-1.03.1-2.72.16-4.24-1.21-1.7-1.53-3.27-4.56-3.27-16.27,0-5.7.8-9.86,1.44-13.21.43-2.22.79-4.13.79-5.87,0-3.63-1.36-4.92-5.21-4.92Z"/>
          </g>
          <g>
            <path class="cls-3" d="M181.88,145.01c.79,6.12-5.18,9.36-10.37,9.36s-9.94-3.02-9.94-10.22c0-3.89,1.44-9.43,1.44-16.27,0-9.5-2.16-14.33-2.16-18.94,0-5.76,3.46-7.56,8.06-7.56s7.71,1.8,7.71,7.42c0,4.75-2.23,9.72-2.23,19.08,0,23.83,6.62,10.3,7.49,17.14Z"/>
            <path class="cls-2" d="M171.51,156.87c-6.19,0-12.44-3.93-12.44-12.72,0-1.84.27-3.88.59-6.24.4-2.96.85-6.3.85-10.04,0-5.37-.7-9.09-1.32-12.38-.45-2.38-.84-4.43-.84-6.56,0-6.49,3.75-10.06,10.56-10.06s10.21,3.52,10.21,9.92c0,2.21-.41,4.35-.88,6.82-.63,3.3-1.35,7.04-1.35,12.27,0,10.93,1.46,12.42,1.62,12.56.03-.02.38-.05.61-.08,1.14-.12,4.62-.48,5.23,4.34.38,2.94-.43,5.64-2.33,7.81-2.37,2.69-6.4,4.37-10.52,4.37ZM168.92,103.88c-4.63,0-5.56,1.94-5.56,5.06,0,1.66.33,3.41.75,5.63.63,3.33,1.41,7.47,1.41,13.31,0,4.07-.47,7.59-.89,10.7-.29,2.18-.55,4.07-.55,5.57,0,7.17,5.69,7.72,7.44,7.72,2.68,0,5.34-1.05,6.76-2.67.95-1.08,1.32-2.34,1.13-3.85-1.03.1-2.72.16-4.24-1.21-1.7-1.53-3.27-4.56-3.27-16.27,0-5.7.8-9.86,1.44-13.21.43-2.22.79-4.13.79-5.87,0-3.63-1.36-4.92-5.21-4.92Z"/>
          </g>
          <g>
            <path class="cls-3" d="M221.84,149.12c0,2.74-3.96,5.26-7.56,5.26-4.9,0-7.78-4.97-4.25-11.23.72-1.22.65-1.44.43-1.58-.43-.14-.72.07-1.15,1.08-1.37,2.66-4.18,11.74-12.82,11.74-7.71,0-12.53-7.13-12.53-18.22,0-12.03,5.69-19.66,14.47-19.66,5.83,0,7.92,3.38,8.64,6.98.36,1.3.58,1.51.94,1.51s.5-.22.43-1.08c-1.01-4.54,1.8-7.42,5.76-7.42,3.67,0,7.63,2.52,7.63,5.18s-3.46,5.69-3.46,13.39,3.46,11.45,3.46,14.04ZM200.6,140.69c3.1,0,5.04-2.88,5.04-6.41s-2.02-6.41-5.18-6.41-5.18,3.17-5.18,6.41c0,3.53,2.16,6.41,5.33,6.41Z"/>
            <path class="cls-2" d="M214.28,156.87c-3.08,0-5.69-1.43-7.15-3.93-.16-.27-.3-.54-.42-.83-2.29,2.6-5.55,4.76-10.21,4.76-9.13,0-15.03-8.13-15.03-20.72,0-13.46,6.66-22.16,16.97-22.16,3.72,0,6.65,1.23,8.62,3.56.12-.19.26-.37.4-.55,1.54-1.92,4-3.01,6.75-3.01,4.78,0,10.13,3.29,10.13,7.68,0,1.5-.59,2.8-1.28,4.3-.97,2.12-2.17,4.76-2.17,9.09s1.23,7.39,2.21,9.69c.67,1.55,1.24,2.9,1.24,4.35,0,4.44-5.31,7.76-10.06,7.76ZM210.19,139.01c.4,0,.77.08,1.06.18l.31.11.28.18c1.54,1.03,1.66,2.69.34,4.93-1.3,2.31-1.58,4.57-.74,6.01.55.94,1.56,1.46,2.83,1.46,2.67,0,5.06-1.87,5.06-2.76,0-.43-.43-1.42-.84-2.38-1.04-2.43-2.62-6.11-2.62-11.66s1.58-8.88,2.63-11.17c.41-.89.83-1.82.83-2.22,0-.76-2.28-2.68-5.13-2.68-1.25,0-2.26.41-2.85,1.14-.77.96-.68,2.29-.47,3.23l.05.34c.05.56.15,1.86-.77,2.87-.54.59-1.31.92-2.15.92-2.42,0-3.07-2.34-3.34-3.35l-.04-.18c-.7-3.49-2.55-4.98-6.19-4.98-7.39,0-11.97,6.57-11.97,17.16,0,7.6,2.63,15.72,10.03,15.72,5.47,0,8-4.63,9.94-8.98.23-.52.43-.97.61-1.32.91-2.05,2.14-2.57,3.14-2.57ZM200.6,143.19c-4.46,0-7.83-3.83-7.83-8.91s3.3-8.91,7.68-8.91,7.68,3.75,7.68,8.91-3.17,8.91-7.54,8.91ZM200.45,130.38c-1.96,0-2.68,2.4-2.68,3.91,0,1.94.97,3.91,2.83,3.91,1.75,0,2.54-2.03,2.54-3.91s-.83-3.91-2.68-3.91Z"/>
          </g>
          <g>
            <path class="cls-3" d="M244.95,129.1c.36-1.73-1.01-1.8-1.51-1.8-2.59,0-4.39,3.1-4.39,7.85v.58c0,10.51,2.88,8.64,3.6,11.52.79,3.38-3.17,7.13-8.28,7.13-4.18,0-7.85-2.59-7.85-8.5,0-3.38,1.22-6.77,1.22-10.15v-.58c0-1.66-.14-3.6-.65-5.62-1.01-4.39-3.02-5.83-3.02-8.28,0-2.66,2.52-4.75,6.41-4.75,3.31,0,6.05,1.58,6.55,3.96.43,1.87-.29,5.04-1.66,7.27-.58.94-.72,1.51-.14,1.51.22,0,.43-.14,1.15-1.51,3.46-6.98,8.71-11.23,13.9-11.23,5.98,0,7.13,5.62,7.13,8.42,0,4.54-2.88,8.28-7.27,8.5-3.38.22-5.62-1.87-5.18-4.32Z"/>
            <path class="cls-2" d="M234.36,156.87c-5.15,0-10.35-3.4-10.35-11,0-1.92.33-3.75.65-5.52.29-1.63.57-3.16.57-4.63v-.58c0-1.8-.19-3.49-.57-5.01-.44-1.93-1.07-3.15-1.68-4.32-.7-1.34-1.42-2.73-1.42-4.56,0-4.2,3.75-7.25,8.91-7.25,4.23,0,7.73,2.11,8.8,5.21,3.27-3.34,7.11-5.21,11.01-5.21,6.65,0,9.63,5.49,9.63,10.92,0,6.1-4.06,10.72-9.65,10.99-2.57.16-4.89-.69-6.36-2.34-.75-.84-1.24-1.86-1.42-2.93-.52.87-.93,2.4-.93,4.5v.58c0,6.2.99,7.2,1.72,7.93.6.6,1.41,1.42,1.81,2.99.49,2.08-.06,4.23-1.53,6.09-2.03,2.56-5.54,4.15-9.17,4.15ZM230.48,119c-2.26,0-3.91.95-3.91,2.25,0,.59.29,1.18.85,2.26.65,1.25,1.53,2.95,2.11,5.46.47,1.87.71,3.96.71,6.18v.58c0,1.92-.33,3.75-.65,5.52-.29,1.63-.57,3.16-.57,4.63,0,5.22,3.35,6,5.35,6,2.11,0,4.17-.89,5.26-2.25.29-.37.76-1.09.59-1.8-.04-.17-.06-.21-.49-.63-1.74-1.75-3.18-3.81-3.18-11.46v-.58c0-1.51.15-2.84.43-4-.46.36-1.03.6-1.74.6-1.07,0-2.01-.53-2.51-1.42-.89-1.6.1-3.21.53-3.9,1.11-1.81,1.6-4.3,1.35-5.4-.22-1.02-1.81-2.02-4.12-2.02ZM247.41,129.56c-.04.27.03.48.21.69.34.38,1.15.76,2.35.68,3.4-.17,4.93-3.23,4.93-6,0-1.78-.45-5.92-4.63-5.92-3.4,0-6.98,2.49-9.82,6.67.93-.58,1.96-.87,2.98-.87,1.76,0,2.75.76,3.26,1.39.51.62,1.04,1.71.71,3.37Z"/>
          </g>
          <g>
            <path class="cls-3" d="M278.14,111.89c-3.53,0-6.12,1.66-6.12,3.89,0,7.63,28.3,5.33,28.3,26.43,0,13.32-11.3,21.24-24.19,21.24-11.81,0-20.16-6.62-20.16-16.92,0-9.07,6.41-15.12,16.35-15.12,4.46,0,7.42,1.22,9.14,2.81,4.39,4.1,2.3,12.03-3.53,11.74-3.67-.14-2.81-3.17-5.11-3.17-.94,0-1.73.58-1.73,2.16,0,2.95,2.45,4.9,6.05,4.9,5.04,0,9.79-3.6,9.79-9.5,0-14.18-27.79-8.71-27.79-24.99,0-7.85,6.55-14.04,19.3-14.04,11.74,0,19.3,5.18,19.3,12.89,0,6.48-5.26,9.22-10.3,8.57-3.38-.36-4.1-2.02-2.88-4.39,2.45-4.68-2.67-6.48-6.41-6.48Z"/>
            <path class="cls-2" d="M276.13,165.95c-13.34,0-22.66-7.99-22.66-19.42,0-9.06,5.59-15.56,14.32-17.21-5.78-2.44-11.15-6.11-11.15-13.97s5.71-16.54,21.8-16.54c13.04,0,21.8,6.18,21.8,15.39,0,3.45-1.22,6.34-3.54,8.38-1.06.93-2.31,1.64-3.67,2.11,5.36,3.43,9.81,8.66,9.81,17.52,0,13.76-11.23,23.74-26.69,23.74ZM272.31,133.9c-8.54,0-13.85,4.84-13.85,12.62,0,8.76,6.93,14.42,17.66,14.42s21.69-6.44,21.69-18.74c0-11.43-9.39-14.88-17.68-17.92-5.7-2.09-10.62-3.9-10.62-8.51,0-3.7,3.62-6.39,8.62-6.39,3.11,0,7.04,1,8.75,3.82.78,1.29,1.39,3.42-.12,6.31-.11.22-.18.39-.22.51.2.08.56.18,1.15.24,2.22.28,4.33-.26,5.69-1.46,1.22-1.08,1.84-2.63,1.84-4.63,0-6.31-6.59-10.39-16.8-10.39s-16.8,4.42-16.8,11.54c0,6.19,4.89,8.35,12.94,11.17,6.96,2.44,14.86,5.2,14.86,13.82,0,7.8-6.33,12-12.29,12-5.03,0-8.55-3.04-8.55-7.4,0-3.2,2.19-4.66,4.23-4.66,2.37,0,3.44,1.62,3.96,2.4.45.67.49.75,1.25.78,1.7.08,2.53-.99,2.92-1.9.64-1.52.54-3.89-1.2-5.51-.86-.79-2.99-2.14-7.44-2.14ZM278.14,114.39c-2.34,0-3.62.92-3.62,1.39,0,1.08,4.12,2.63,7.04,3.7.1-.67.34-1.42.77-2.26.2-.39.5-1.07.28-1.42-.41-.68-2.24-1.41-4.47-1.41Z"/>
          </g>
        </g>
        <g>
          <path class="cls-3" d="M5.16,85.32c-.25,1.67-.4,3.66-1.18,6.8-.85,3.4-1.47,4.3-1.48,6.5,0,1.16,0,4.05,1.77,6.2,2.64,3.19,8.34,3.72,12.11,1.48,4.64-2.76,4.91-8.86,5.02-11.52.17-3.82-.86-5.7-1.66-9.27-.75-3.39-.89-6.49.48-17.92,1.53-12.73,2.29-19.09,3.55-23.64.33-1.2,8-28.22,16.84-27.77,4.24.22,7.29,6.67,9.16,10.64,1.18,2.49,1.88,4.79,3.84,18.91,1.24,8.91.64,5.72,2.07,16.55,1.25,9.44,1.63,11.31,1.18,15.07,0,0-.38,3.24-1.77,10.05h0s-.48,2.98,0,4.73c.87,3.15,5.44,4.43,6.5,4.73.73.2,7.21,2.02,10.34-1.48,1.88-2.1,1.61-5.05,1.18-9.75-.33-3.59-.99-4.84-1.48-7.68-.81-4.74-.15-8.37.59-12.71,4.1-23.88,3.5-25.75,6.5-32.8,2.68-6.31,6.14-14.45,10.93-14.48,4.11-.02,7.17,5.94,10.34,12.11,4.67,9.11,6.12,16.93,7.98,27.48,1.93,10.94,2.89,16.41,1.77,21.57-.17.78-1.36,6.13-2.66,13.3-1.08,5.97-1.23,7.64-.3,9.45,1.89,3.7,7.29,6.17,12.11,4.73.54-.16,4.35-1.38,6.2-5.32,1.72-3.66,1.03-8.16-1.77-11.52-.11-3.72-.34-8.66-.89-14.48-.39-4.21-.8-7.35-.89-7.98-.73-5.52-1.94-14.4-5.02-24.52-2.25-7.39-4.72-12.85-5.61-14.77-5.57-12-11.44-24.64-20.68-25.41-4.06-.34-7.27,1.74-9.16,2.95-1.86,1.2-7.05,5.01-12.1,22.84-2.88,10.15-3.26,16.18-4.45,16.16-1.93-.03-1.41-15.96-10.05-31.61-1.95-3.53-4.89-8.02-10.05-9.75,0,0-3.91-1.32-8.27-.3C16.65,7.45,7.31,70.74,5.16,85.32Z"/>
          <path class="cls-2" d="M11.18,110.17c-3.44,0-6.81-1.31-8.83-3.76C0,103.57,0,99.97,0,98.61c0-1.81.36-2.97.8-4.44.22-.73.47-1.55.75-2.67.58-2.31.79-3.93.97-5.36.05-.42.11-.82.16-1.2h0C10.48,32.17,21.56,3.74,35.61.45c5-1.17,9.45.3,9.64.36,5.9,1.98,9.21,6.87,11.44,10.91,4.75,8.61,6.81,17.23,8,23.43.49-2.14,1.1-4.64,1.89-7.45,5.48-19.31,11.25-23.03,13.15-24.26,2.03-1.31,5.82-3.75,10.72-3.35,10.69.89,16.82,14.08,22.74,26.85,1.51,3.24,3.72,8.49,5.74,15.1,3.21,10.52,4.45,19.89,5.11,24.93.15,1.12.53,4.14.9,8.07.43,4.59.72,9.23.87,13.82,2.94,4.01,3.57,9.21,1.56,13.48-2.19,4.67-6.49,6.27-7.75,6.65-5.74,1.72-12.49-.96-15.06-5.98-1.38-2.69-1-5.18.06-11.04.55-3.06,1.46-7.83,2.63-13.16l.05-.23c1.02-4.68.08-10-1.79-20.6-1.76-9.95-3.14-17.81-7.74-26.77-2.46-4.79-5.52-10.76-8.09-10.76h0c-3.15.02-6.59,8.12-8.65,12.96-1.92,4.53-2.28,6.8-3.58,15.27-.61,3.96-1.45,9.39-2.75,16.97l-.04.23c-.71,4.13-1.27,7.39-.55,11.63.17,1,.37,1.79.57,2.62.35,1.41.71,2.86.93,5.25.46,5.07.79,8.74-1.81,11.64-3.87,4.32-10.83,2.79-12.88,2.22-5.78-1.62-7.67-4.41-8.24-6.47-.6-2.17-.15-5.21-.06-5.79l.02-.1c1.35-6.59,1.74-9.81,1.74-9.84.35-3,.14-4.6-.77-11.35l-.41-3.1c-.71-5.34-.92-7.26-1.1-8.95-.19-1.72-.34-3.07-.96-7.58-1.97-14.19-2.63-16.07-3.63-18.19-1.39-2.94-4.28-9.07-7.03-9.21-.03,0-.07,0-.1,0-4.33,0-10.72,13.4-14.2,25.95-1.21,4.36-1.96,10.68-3.47,23.27-1.3,10.86-1.22,13.93-.52,17.08.22.97.45,1.81.68,2.63.6,2.15,1.17,4.17,1.03,7.29-.12,2.77-.45,10.11-6.24,13.56-1.96,1.17-4.24,1.72-6.49,1.72ZM5.16,85.32l2.47.37c-.05.35-.1.72-.15,1.11-.19,1.49-.43,3.34-1.08,5.92-.31,1.24-.59,2.17-.82,2.91-.4,1.32-.58,1.92-.59,2.99,0,.94,0,3.15,1.2,4.61,1.77,2.14,6.1,2.59,8.91.92,3.48-2.07,3.7-7.08,3.8-9.48.1-2.31-.3-3.74-.85-5.72-.24-.84-.5-1.79-.75-2.89-.83-3.74-.96-7.17.43-18.76,1.54-12.84,2.31-19.28,3.62-24.01,1.96-7.08,9.2-30.12,19.38-29.6,5.73.29,9.08,7.38,11.29,12.07,1.34,2.84,2.08,5.41,4.06,19.63.63,4.57.79,5.96.98,7.72.18,1.67.39,3.56,1.09,8.85l.41,3.09c.92,6.9,1.2,8.98.77,12.6-.02.14-.41,3.4-1.8,10.2-.16,1.02-.28,2.79-.05,3.62.12.42.8,1.88,4.76,2.98,2.64.74,6.26.99,7.81-.74,1.1-1.23.96-3.42.55-7.86-.18-2.01-.47-3.16-.8-4.5-.22-.89-.45-1.8-.65-2.99-.86-5.08-.21-8.9.55-13.32l.04-.23c1.3-7.55,2.13-12.95,2.74-16.89,1.35-8.72,1.75-11.35,3.92-16.46,3.02-7.11,6.78-15.96,13.22-16h.04c5.62,0,8.98,6.54,12.54,13.47,4.94,9.63,6.39,17.82,8.22,28.19,1.98,11.25,2.98,16.89,1.75,22.53l-.05.24c-1.15,5.25-2.04,9.95-2.59,12.97-1.04,5.76-1.05,6.85-.53,7.87,1.3,2.55,5.39,4.6,9.17,3.47.54-.16,3.31-1.12,4.66-3.99,1.3-2.78.74-6.25-1.43-8.86l-.55-.66-.03-.86c-.14-4.74-.43-9.56-.88-14.32-.36-3.85-.73-6.8-.88-7.88-.65-4.89-1.85-13.99-4.94-24.12-1.93-6.33-4.05-11.35-5.49-14.45-5.08-10.93-10.83-23.33-18.62-23.97-3.21-.27-5.85,1.44-7.6,2.56-5.03,3.24-8.79,13.44-11.05,21.42-1.23,4.33-2,7.94-2.57,10.57-1.06,4.96-1.61,7.43-4.32,7.41-2.76-.04-3.24-2.75-4.12-7.65-1.04-5.86-2.79-15.67-8.08-25.26-1.79-3.24-4.39-7.15-8.65-8.59-.02,0-3.33-1.07-6.91-.23-5.37,1.26-18.97,11.6-29.12,80.37l-2.47-.36Z"/>
        </g>
        <g>
          <path class="cls-3" d="M271.81,85.99c2.2,1.75,2.37,3.56,2.42,5.38.2,2.73.48,8.18.58,10.91.29,9.05.18,18.27.43,27.31.14,10.93,1.58,21.8,1.88,32.72.04,1.82.06,3.64.03,5.46.05,1.82-.03,3.64-2.44,5.55-2.53-1.74-2.74-3.55-2.81-5.37-.15-1.82-.25-3.63-.33-5.45-.43-10.92.29-21.86-.3-32.77-.34-9.03-1.07-18.23-1.38-27.27-.09-2.71-.16-8.21-.14-10.92-.06-1.82-.02-3.64,2.06-5.53h0Z"/>
          <path class="cls-2" d="M274.81,176.42l-1.52-1.04c-3.39-2.33-3.79-4.97-3.89-7.28-.13-1.62-.24-3.36-.33-5.49-.2-5.19-.15-10.42-.1-15.48.05-5.68.11-11.55-.19-17.28-.17-4.33-.42-8.75-.67-13.02-.27-4.7-.55-9.55-.71-14.3-.09-2.74-.16-8.3-.15-11.02-.06-1.66-.16-4.61,2.88-7.37l1.57-1.43,1.66,1.32c3.22,2.55,3.31,5.5,3.37,7.26.19,2.68.48,8.13.58,10.9.15,4.76.2,9.62.24,14.32.04,4.28.08,8.7.2,13,.08,5.78.52,11.63.95,17.29.38,5.04.78,10.26.92,15.43.04,2.16.05,3.91.03,5.52.06,2.31-.17,4.98-3.4,7.52l-1.44,1.14ZM273.94,150.16c-.03,4.05-.03,8.18.13,12.23.1,2.07.2,3.78.33,5.35v.1c.03.59.06,1.08.18,1.52.09-.45.09-.94.08-1.53v-.05s0-.05,0-.05c.02-1.56.02-3.27-.03-5.37-.11-4.04-.38-8.15-.69-12.2Z"/>
        </g>
        <g>
          <path class="cls-3" d="M280.26,86.5c2.19,1.99,2.33,4.03,2.37,6.07.17,3.06.4,9.16.47,12.22.19,10.14-.02,20.46.17,30.58.15,14.27,1.35,28.56,2,42.77-.08.51-.12,1.02-.3,1.54-.27.75-2.44,1.36-2.69,2.35,0,.76.03,1.58.04,2.29-.02-.61-.02-1.72-.06-2.29-.3-.98-2.49-1.5-2.79-2.24-.2-.51-.26-1.01-.36-1.52.05-14.23.66-28.56.2-42.82-.24-10.12-.88-20.43-1.12-30.56-.06-3.02-.09-9.2-.05-12.23-.05-2.04.01-4.08,2.11-6.16h0Z"/>
          <path class="cls-2" d="M279.82,184.4c0-.23-.01-.52-.02-.82,0-.02,0-.04,0-.06,0-.15,0-.29-.01-.44-.1-.06-.21-.12-.3-.16-.83-.46-1.87-1.02-2.34-2.18-.26-.65-.36-1.23-.45-1.69l-.1-.54v-.25c.02-4.87.1-9.83.19-14.62.16-9.23.32-18.77.02-28.1-.12-5.03-.34-10.19-.56-15.18-.22-5.06-.44-10.29-.56-15.4-.06-3.07-.09-9.29-.05-12.32-.04-1.8-.11-4.96,2.85-7.9l1.69-1.67,1.76,1.6c2.85,2.59,3.14,5.31,3.19,7.86.17,2.99.4,9.08.47,12.22.1,5.13.09,10.36.09,15.43,0,4.99-.01,10.15.08,15.16.09,9.36.66,18.89,1.2,28.1.28,4.79.58,9.73.8,14.6v.25s-.07.55-.07.55c-.07.46-.15,1.04-.36,1.66-.43,1.21-1.45,1.82-2.26,2.31-.08.05-.19.11-.29.17,0,.16,0,.32,0,.47v.02c0,.29.01.56.02.83l-5,.1ZM281.68,178.41c.08.04.16.08.22.12.1.05.2.11.3.17.1-.06.2-.12.29-.18.07-.04.14-.08.22-.13.01-.08.02-.17.04-.25l.02-.11c-.22-4.76-.51-9.6-.78-14.3-.05-.83-.1-1.67-.15-2.51-.01.84-.03,1.68-.04,2.51-.08,4.7-.16,9.56-.18,14.32l.02.11c.02.09.03.18.05.26Z"/>
        </g>
      </g>
      <g>
        <g>
          <path class="cls-1" d="M165.01,93.21c0,2.74-3.96,5.26-7.56,5.26-4.9,0-7.78-4.97-4.25-11.23.72-1.22.65-1.44.43-1.58-.43-.14-.72.07-1.15,1.08-1.37,2.66-4.18,11.74-12.82,11.74-7.71,0-12.53-7.13-12.53-18.22,0-12.02,5.69-19.66,14.47-19.66,5.83,0,7.92,3.38,8.64,6.98.36,1.3.58,1.51.94,1.51s.5-.22.43-1.08c-1.01-4.54,1.8-7.42,5.76-7.42,3.67,0,7.63,2.52,7.63,5.18s-3.46,5.69-3.46,13.39,3.46,11.45,3.46,14.04ZM143.76,84.79c3.1,0,5.04-2.88,5.04-6.41s-2.02-6.41-5.18-6.41-5.18,3.17-5.18,6.41c0,3.53,2.16,6.41,5.33,6.41Z"/>
          <path class="cls-1" d="M180.84,98.47c-9.87,0-15.34-7.13-15.34-18.15,0-12.82,7.49-19.73,16.2-19.73,6.26,0,10.94,3.53,12.17,8.64.65,2.74.5,7.13-3.38,9-4.39,2.02-10.73-.22-8.06-4.61,1.01-1.58.58-2.45-1.01-2.45-2.45,0-4.54,1.94-4.54,6.19,0,4.54,2.38,7.42,5.9,7.42,2.16,0,5.26-1.15,6.12-3.53.5-1.51,1.87-2.3,3.53-1.8,1.8.5,3.17,2.16,3.17,5.62,0,6.55-4.97,13.39-14.76,13.39Z"/>
        </g>
        <g>
          <path class="cls-1" d="M53.58,152.86c0-5.04,2.16-10.58,2.16-22.83,0-7.85-.86-12.75-1.08-13.75-1.22-7.13-4.46-10.22-7.13-8.35-2.16,1.44-2.81,5.11.65,10.01,5.26,7.42,3.02,14.83-4.32,14.91-5.11.07-10.37-3.46-10.37-13.18,0-17.64,17.86-18.29,24.05-18.29h11.02c21.82,0,30.6,10.66,30.6,30.31,0,22.68-11.59,30.24-30.82,30.24h-5.62c-5.83,0-9.14-3.02-9.14-9.07ZM83.96,131.04c0-12.46-2.52-21.1-8.93-21.1-7.49,0-7.2,17.35-7.2,22.54,0,8.64,1.08,17.5,7.78,17.5s8.35-8.14,8.35-18.94Z"/>
          <path class="cls-1" d="M118.66,116.5c9.58,0,17.28,7.71,17.28,19.73,0,11.09-6.55,18.15-17.14,18.15s-17.43-7.06-17.43-18.36,7.7-19.51,17.28-19.51ZM118.73,140.69c3.6,0,5.83-2.88,5.83-6.41s-2.3-6.41-5.98-6.41-5.9,3.17-5.9,6.41c0,3.53,2.45,6.41,6.05,6.41Z"/>
          <path class="cls-1" d="M158.55,145.01c.79,6.12-5.19,9.36-10.37,9.36s-9.94-3.02-9.94-10.22c0-3.89,1.44-9.43,1.44-16.27,0-9.5-2.16-14.33-2.16-18.94,0-5.76,3.46-7.56,8.06-7.56s7.71,1.8,7.71,7.42c0,4.75-2.23,9.72-2.23,19.08,0,23.83,6.63,10.3,7.49,17.14Z"/>
          <path class="cls-1" d="M181.88,145.01c.79,6.12-5.18,9.36-10.37,9.36s-9.94-3.02-9.94-10.22c0-3.89,1.44-9.43,1.44-16.27,0-9.5-2.16-14.33-2.16-18.94,0-5.76,3.46-7.56,8.06-7.56s7.71,1.8,7.71,7.42c0,4.75-2.23,9.72-2.23,19.08,0,23.83,6.62,10.3,7.49,17.14Z"/>
          <path class="cls-1" d="M221.84,149.12c0,2.74-3.96,5.26-7.56,5.26-4.9,0-7.78-4.97-4.25-11.23.72-1.22.65-1.44.43-1.58-.43-.14-.72.07-1.15,1.08-1.37,2.66-4.18,11.74-12.82,11.74-7.71,0-12.53-7.13-12.53-18.22,0-12.03,5.69-19.66,14.47-19.66,5.83,0,7.92,3.38,8.64,6.98.36,1.3.58,1.51.94,1.51s.5-.22.43-1.08c-1.01-4.54,1.8-7.42,5.76-7.42,3.67,0,7.63,2.52,7.63,5.18s-3.46,5.69-3.46,13.39,3.46,11.45,3.46,14.04ZM200.6,140.69c3.1,0,5.04-2.88,5.04-6.41s-2.02-6.41-5.18-6.41-5.18,3.17-5.18,6.41c0,3.53,2.16,6.41,5.33,6.41Z"/>
          <path class="cls-1" d="M244.95,129.1c.36-1.73-1.01-1.8-1.51-1.8-2.59,0-4.39,3.1-4.39,7.85v.58c0,10.51,2.88,8.64,3.6,11.52.79,3.38-3.17,7.13-8.28,7.13-4.18,0-7.85-2.59-7.85-8.5,0-3.38,1.22-6.77,1.22-10.15v-.58c0-1.66-.14-3.6-.65-5.62-1.01-4.39-3.02-5.83-3.02-8.28,0-2.66,2.52-4.75,6.41-4.75,3.31,0,6.05,1.58,6.55,3.96.43,1.87-.29,5.04-1.66,7.27-.58.94-.72,1.51-.14,1.51.22,0,.43-.14,1.15-1.51,3.46-6.98,8.71-11.23,13.9-11.23,5.98,0,7.13,5.62,7.13,8.42,0,4.54-2.88,8.28-7.27,8.5-3.38.22-5.62-1.87-5.18-4.32Z"/>
          <path class="cls-1" d="M278.14,111.89c-3.53,0-6.12,1.66-6.12,3.89,0,7.63,28.3,5.33,28.3,26.43,0,13.32-11.3,21.24-24.19,21.24-11.81,0-20.16-6.62-20.16-16.92,0-9.07,6.41-15.12,16.35-15.12,4.46,0,7.42,1.22,9.14,2.81,4.39,4.1,2.3,12.03-3.53,11.74-3.67-.14-2.81-3.17-5.11-3.17-.94,0-1.73.58-1.73,2.16,0,2.95,2.45,4.9,6.05,4.9,5.04,0,9.79-3.6,9.79-9.5,0-14.18-27.79-8.71-27.79-24.99,0-7.85,6.55-14.04,19.3-14.04,11.74,0,19.3,5.18,19.3,12.89,0,6.48-5.26,9.22-10.3,8.57-3.38-.36-4.1-2.02-2.88-4.39,2.45-4.68-2.67-6.48-6.41-6.48Z"/>
        </g>
        <path class="cls-1" d="M5.16,85.32c-.25,1.67-.4,3.66-1.18,6.8-.85,3.4-1.47,4.3-1.48,6.5,0,1.16,0,4.05,1.77,6.2,2.64,3.19,8.34,3.72,12.11,1.48,4.64-2.76,4.91-8.86,5.02-11.52.17-3.82-.86-5.7-1.66-9.27-.75-3.39-.89-6.49.48-17.92,1.53-12.73,2.29-19.09,3.55-23.64.33-1.2,8-28.22,16.84-27.77,4.24.22,7.29,6.67,9.16,10.64,1.18,2.49,1.88,4.79,3.84,18.91,1.24,8.91.64,5.72,2.07,16.55,1.25,9.44,1.63,11.31,1.18,15.07,0,0-.38,3.24-1.77,10.05h0s-.48,2.98,0,4.73c.87,3.15,5.44,4.43,6.5,4.73.73.2,7.21,2.02,10.34-1.48,1.88-2.1,1.61-5.05,1.18-9.75-.33-3.59-.99-4.84-1.48-7.68-.81-4.74-.15-8.37.59-12.71,4.1-23.88,3.5-25.75,6.5-32.8,2.68-6.31,6.14-14.45,10.93-14.48,4.11-.02,7.17,5.94,10.34,12.11,4.67,9.11,6.12,16.93,7.98,27.48,1.93,10.94,2.89,16.41,1.77,21.57-.17.78-1.36,6.13-2.66,13.3-1.08,5.97-1.23,7.64-.3,9.45,1.89,3.7,7.29,6.17,12.11,4.73.54-.16,4.35-1.38,6.2-5.32,1.72-3.66,1.03-8.16-1.77-11.52-.11-3.72-.34-8.66-.89-14.48-.39-4.21-.8-7.35-.89-7.98-.73-5.52-1.94-14.4-5.02-24.52-2.25-7.39-4.72-12.85-5.61-14.77-5.57-12-11.44-24.64-20.68-25.41-4.06-.34-7.27,1.74-9.16,2.95-1.86,1.2-7.05,5.01-12.1,22.84-2.88,10.15-3.26,16.18-4.45,16.16-1.93-.03-1.41-15.96-10.05-31.61-1.95-3.53-4.89-8.02-10.05-9.75,0,0-3.91-1.32-8.27-.3C16.65,7.45,7.31,70.74,5.16,85.32Z"/>
        <path class="cls-1" d="M271.81,85.99c2.2,1.75,2.37,3.56,2.42,5.38.2,2.73.48,8.18.58,10.91.29,9.05.18,18.27.43,27.31.14,10.93,1.58,21.8,1.88,32.72.04,1.82.06,3.64.03,5.46.05,1.82-.03,3.64-2.44,5.55-2.53-1.74-2.74-3.55-2.81-5.37-.15-1.82-.25-3.63-.33-5.45-.43-10.92.29-21.86-.3-32.77-.34-9.03-1.07-18.23-1.38-27.27-.09-2.71-.16-8.21-.14-10.92-.06-1.82-.02-3.64,2.06-5.53h0Z"/>
        <path class="cls-1" d="M280.26,86.5c2.19,1.99,2.33,4.03,2.37,6.07.17,3.06.4,9.16.47,12.22.19,10.14-.02,20.46.17,30.58.15,14.27,1.35,28.56,2,42.77-.08.51-.12,1.02-.3,1.54-.27.75-2.44,1.36-2.69,2.35,0,.76.03,1.58.04,2.29-.02-.61-.02-1.72-.06-2.29-.3-.98-2.49-1.5-2.79-2.24-.2-.51-.26-1.01-.36-1.52.05-14.23.66-28.56.2-42.82-.24-10.12-.88-20.43-1.12-30.56-.06-3.02-.09-9.2-.05-12.23-.05-2.04.01-4.08,2.11-6.16h0Z"/>
      </g>
    </g>
  </g>
</svg>